<svg fill="none" height="28" viewBox="0 0 99 28" width="99" xmlns="http://www.w3.org/2000/svg"><path d="m0 0h96c1.6569 0 3 1.34315 3 3v22c0 1.6569-1.3431 3-3 3h-96l8.98047-14z" fill="#2f4ed0"/><path d="m20.6807 18v-9.95312h3.4863c1.2077 0 2.1237.23242 2.748.69726.6244.46029.9366 1.13704.9366 2.03026 0 .4876-.1254.9183-.376 1.292-.2507.3691-.5993.6403-1.0459.8135.5104.1276.9114.3851 1.2031.7724.2962.3874.4443.8614.4443 1.4219 0 .957-.3053 1.6817-.916 2.1738-.6106.4922-1.4811.7429-2.6113.752zm2.0507-4.334v2.6865h1.7569c.4831 0 .859-.1139 1.1279-.3418.2734-.2324.4102-.5514.4102-.957 0-.9114-.4717-1.374-1.4151-1.3877zm0-1.4492h1.5176c1.0345-.0182 1.5518-.4307 1.5518-1.2373 0-.4512-.1322-.7747-.3965-.9707-.2598-.20053-.6722-.30079-1.2373-.30079h-1.4356zm10.1651 5.9199c-1.0847 0-1.9688-.3327-2.6524-.998-.679-.6654-1.0185-1.5518-1.0185-2.6592v-.1914c0-.7429.1435-1.4059.4306-1.9893.2872-.5879.6928-1.039 1.2168-1.3535.5287-.319 1.1303-.4785 1.8047-.4785 1.0118 0 1.807.319 2.3858.957.5833.638.875 1.5427.875 2.7139v.8066h-4.71c.0638.4831.2552.8705.5742 1.1621.3236.2917.7315.4375 1.2237.4375.761 0 1.3558-.2757 1.7841-.8271l.9707 1.0869c-.2962.4193-.6972.7474-1.2031.9844-.5058.2324-1.0664.3486-1.6816.3486zm-.2256-6.0703c-.3919 0-.7109.1322-.957.3965-.2416.2643-.3965.6426-.4649 1.1348h2.7481v-.1573c-.0091-.4375-.1276-.7747-.3555-1.0117-.2279-.2415-.5514-.3623-.9707-.3623zm8.4014 3.8897c0-.2416-.1208-.4307-.3623-.5674-.237-.1413-.6198-.2666-1.1485-.376-1.7591-.3691-2.6386-1.1165-2.6386-2.2422 0-.6562.2711-1.2031.8134-1.6406.5469-.4421 1.2601-.6631 2.1397-.6631.9388 0 1.6885.221 2.249.6631.5651.442.8477 1.0163.8477 1.7226h-1.9756c0-.2825-.0912-.5149-.2735-.6972-.1823-.1869-.4671-.2803-.8545-.2803-.3326 0-.5901.0752-.7724.2256s-.2735.3418-.2735.5742c0 .2188.1026.3965.3077.5332.2096.1322.5605.2484 1.0527.3486.4922.0957.9069.2051 1.2441.3282 1.0437.3828 1.5655 1.0459 1.5655 1.9892 0 .6745-.2894 1.2214-.8682 1.6406-.5788.4148-1.3262.6221-2.2422.6221-.6198 0-1.1712-.1094-1.6543-.3281-.4785-.2233-.8545-.5264-1.1279-.9092-.2735-.3874-.4102-.8043-.4102-1.251h1.8731c.0182.3509.1481.6198.3896.8067.2416.1868.5651.2803.9707.2803.3783 0 .6631-.0707.8545-.212.196-.1458.294-.3349.294-.5673zm5.5644-7.17094v1.81834h1.2647v1.4492h-1.2647v3.6914c0 .2735.0524.4694.1572.5879.1049.1185.3054.1778.6016.1778.2188 0 .4124-.016.5811-.0479v1.4971c-.3874.1185-.7862.1777-1.1963.1777-1.3854 0-2.0918-.6995-2.1192-2.0986v-3.9854h-1.08v-1.4492h1.08v-1.81834zm9.6592 6.74704 2.2559-7.48532h2.2832l-3.4659 9.95312h-2.1396l-3.4522-9.95312h2.2764zm9.3242 2.4678c-.0911-.1777-.1572-.3988-.1982-.6631-.4785.5332-1.1006.7998-1.8662.7998-.7246 0-1.3262-.2096-1.8047-.6289-.474-.4193-.711-.9479-.711-1.5859 0-.7839.2894-1.3854.8682-1.8047.5833-.4193 1.4242-.6312 2.5225-.6358h.9091v-.4238c0-.3418-.0888-.6152-.2666-.8203-.1731-.2051-.4489-.3076-.8271-.3076-.3327 0-.5947.0797-.7861.2392-.1869.1596-.2803.3783-.2803.6563h-1.9756c0-.4284.1322-.8249.3965-1.1895.2643-.3645.638-.6494 1.1211-.8545.4831-.2096 1.0254-.3144 1.6269-.3144.9115 0 1.6338.2301 2.167.6904.5378.4558.8067 1.0983.8067 1.9278v3.206c.0045.7018.1025 1.2328.2939 1.5928v.1162zm-1.6338-1.374c.2917 0 .5606-.0638.8067-.1914.2461-.1322.4284-.3076.5468-.5264v-1.2715h-.7382c-.989 0-1.5153.3418-1.5791 1.0254l-.0069.1162c0 .2461.0866.4489.2598.6084s.4101.2393.7109.2393zm6.9385 1.374h-1.9824v-10.5h1.9824zm6.0635-.752c-.4876.5925-1.1621.8887-2.0235.8887-.7929 0-1.399-.2278-1.8183-.6836-.4147-.4557-.6266-1.1233-.6358-2.0029v-4.8467h1.9756v4.7783c0 .7702.3509 1.1553 1.0528 1.1553.6699 0 1.1302-.2324 1.3808-.6973v-5.2363h1.9824v7.3965h-1.8593zm6.8086.8887c-1.0847 0-1.9688-.3327-2.6524-.998-.679-.6654-1.0185-1.5518-1.0185-2.6592v-.1914c0-.7429.1435-1.4059.4306-1.9893.2872-.5879.6927-1.039 1.2168-1.3535.5287-.319 1.1302-.4785 1.8047-.4785 1.0117 0 1.807.319 2.3858.957.5833.638.875 1.5427.875 2.7139v.8066h-4.71c.0638.4831.2552.8705.5742 1.1621.3236.2917.7315.4375 1.2237.4375.761 0 1.3558-.2757 1.7841-.8271l.9707 1.0869c-.2962.4193-.6972.7474-1.2031.9844-.5058.2324-1.0664.3486-1.6816.3486zm-.2256-6.0703c-.3919 0-.7109.1322-.957.3965-.2416.2643-.3965.6426-.4649 1.1348h2.7481v-.1573c-.0092-.4375-.1276-.7747-.3555-1.0117-.2279-.2415-.5514-.3623-.9707-.3623z" fill="#fff"/></svg>