<svg fill="none" height="24" viewBox="0 0 158 24" width="158" xmlns="http://www.w3.org/2000/svg"><g fill="#283250"><path d="m3.44001 18.288c-.976 0-1.672-.296-2.088-.888-.399996-.592-.599996-1.4-.599996-2.424v-13.91997h2.759996v14.06397c0 .336.064.576.192.72.128.128.264.192.408.192h.168c.064-.016.152-.032.264-.048l.36 2.064c-.16.064-.368.12-.624.168-.24.048-.52.072-.84.072z"/><path d="m12.3076 18.288c-1.088 0-2.072-.24-2.95196-.72-.88-.496-1.576-1.2-2.088-2.112-.512-.928-.768-2.04-.768-3.336 0-1.28.256-2.38397.768-3.31197.528-.928 1.208-1.64 2.04-2.136.83196-.496 1.70396-.744 2.61596-.744 1.072 0 1.968.24 2.688.72.72.464 1.264 1.12 1.632 1.968.368.832.552 1.79997.552 2.90397 0 .576-.04 1.024-.12 1.344h-7.48796c.128 1.04.504 1.848 1.12796 2.424.624.576 1.408.864 2.352.864.512 0 .984-.072 1.416-.216.448-.16.888-.376 1.32-.648l.936 1.728c-.56.368-1.184.672-1.872.912s-1.408.36-2.16.36zm-3.14396-7.296h5.23196c0-.912-.2-1.62397-.6-2.13597-.4-.528-1-.792-1.8-.792-.688 0-1.304.256-1.848.768-.52796.496-.85596 1.21597-.98396 2.15997z"/><path d="m23.3013 23.208c-.928 0-1.768-.112-2.52-.336-.736-.224-1.32-.568-1.752-1.032-.416-.448-.624-1.016-.624-1.704 0-.976.56-1.816 1.68-2.52v-.096c-.304-.192-.56-.448-.768-.768-.192-.32-.288-.72-.288-1.2 0-.464.128-.88.384-1.248.272-.384.576-.696.912-.936v-.096c-.4-.304-.76-.728-1.08-1.272-.304-.544-.456-1.16-.456-1.848 0-.91197.216-1.67997.648-2.30397s1-1.096 1.704-1.416c.72-.336 1.488-.504 2.304-.504.32 0 .624.032.912.096.304.048.576.112.816.192h4.224v2.04h-2.16c.192.224.352.512.48.864.128.336.192.712.192 1.12797 0 .864-.2 1.6-.6 2.208-.4.592-.936 1.04-1.608 1.344s-1.424.456-2.256.456c-.256 0-.52-.024-.792-.072s-.544-.128-.816-.24c-.176.16-.32.32-.432.48-.096.16-.144.376-.144.648 0 .336.136.6.408.792.288.192.792.288 1.512.288h2.088c1.424 0 2.496.232 3.216.696.736.448 1.104 1.184 1.104 2.208 0 .768-.256 1.464-.768 2.088-.512.64-1.24 1.144-2.184 1.512s-2.056.552-3.336.552zm.144-10.68c.56 0 1.04-.208 1.44-.624s.6-1 .6-1.752c0-.73597-.2-1.30397-.6-1.70397-.384-.416-.864-.624-1.44-.624s-1.064.2-1.464.6-.6.976-.6 1.72797c0 .752.2 1.336.6 1.752s.888.624 1.464.624zm.288 8.88c.944 0 1.712-.192 2.304-.576s.888-.824.888-1.32c0-.464-.184-.776-.552-.936-.352-.16-.864-.24-1.536-.24h-1.608c-.64 0-1.176-.056-1.608-.168-.608.464-.912.984-.912 1.56 0 .528.272.936.816 1.224.544.304 1.28.456 2.208.456z"/><path d="m34.1002 18.288c-1.024 0-1.864-.32-2.52-.96-.64-.64-.96-1.472-.96-2.496 0-1.264.552-2.24 1.656-2.928 1.104-.704 2.864-1.184 5.28-1.44-.016-.62397-.184-1.15997-.504-1.60797-.304-.464-.856-.696-1.656-.696-.576 0-1.144.112-1.704.336-.544.224-1.08.496-1.608.816l-1.008-1.848c.656-.416 1.392-.776 2.208-1.08.832-.304 1.712-.456 2.64-.456 1.472 0 2.568.44 3.288 1.32.736.864 1.104 2.12 1.104 3.76797v6.984h-2.28l-.192-1.296h-.096c-.528.448-1.096.824-1.704 1.128-.592.304-1.24.456-1.944.456zm.888-2.16c.48 0 .912-.112 1.296-.336.4-.24.824-.56 1.272-.96v-2.64c-1.6.208-2.712.52-3.336.936-.624.4-.936.896-.936 1.488 0 .528.16.912.48 1.152s.728.36 1.224.36z"/><path d="m46.3072 18.288c-.976 0-1.672-.296-2.088-.888-.4-.592-.6-1.4-.6-2.424v-13.91997h2.76v14.06397c0 .336.064.576.192.72.128.128.264.192.408.192h.168c.064-.016.152-.032.264-.048l.36 2.064c-.16.064-.368.12-.624.168-.24.048-.52.072-.84.072z"/><path d="m54.2868 18.288c-1.36 0-2.328-.392-2.904-1.176-.56-.8-.84-1.832-.84-3.096v-5.61597h-1.68v-2.064l1.824-.12.336-3.216h2.304v3.216h3v2.184h-3v5.61597c0 1.376.552 2.064 1.656 2.064.208 0 .424-.024.648-.072.224-.064.416-.128.576-.192l.48 2.04c-.32.112-.688.208-1.104.288-.4.096-.832.144-1.296.144z"/><path d="m63.4717 18.288c-1.088 0-2.072-.24-2.952-.72-.88-.496-1.576-1.2-2.088-2.112-.512-.928-.768-2.04-.768-3.336 0-1.28.256-2.38397.768-3.31197.528-.928 1.208-1.64 2.04-2.136s1.704-.744 2.616-.744c1.072 0 1.968.24 2.688.72.72.464 1.264 1.12 1.632 1.968.368.832.552 1.79997.552 2.90397 0 .576-.04 1.024-.12 1.344h-7.488c.128 1.04.504 1.848 1.128 2.424s1.408.864 2.352.864c.512 0 .984-.072 1.416-.216.448-.16.888-.376 1.32-.648l.936 1.728c-.56.368-1.184.672-1.872.912s-1.408.36-2.16.36zm-3.144-7.296h5.232c0-.912-.2-1.62397-.6-2.13597-.4-.528-1-.792-1.8-.792-.688 0-1.304.256-1.848.768-.528.496-.856 1.21597-.984 2.15997z"/><path d="m70.5958 18v-11.78397h2.28l.192 1.608h.096c.496-.528 1.032-.976 1.608-1.344.592-.368 1.256-.552 1.992-.552.864 0 1.552.192 2.064.576.528.368.928.88 1.2 1.536.56-.608 1.144-1.112 1.752-1.512.624-.4 1.304-.6 2.04-.6 1.248 0 2.168.408 2.76 1.224s.888 1.968.888 3.45597v7.392h-2.784v-7.032c0-.97597-.152-1.66397-.456-2.06397-.288-.4-.736-.6-1.344-.6-.736 0-1.56.488-2.472 1.464v8.23197h-2.76v-7.032c0-.97597-.152-1.66397-.456-2.06397-.288-.4-.744-.6-1.368-.6-.736 0-1.56.488-2.472 1.464v8.23197z"/><path d="m90.8223 22.656v-16.43997h2.28l.192 1.248h.096c.496-.416 1.048-.776 1.656-1.08.624-.304 1.256-.456 1.896-.456 1.472 0 2.608.544 3.4077 1.632.816 1.088 1.224 2.54397 1.224 4.36797 0 1.344-.24 2.496-.72 3.456-.48.944-1.1037 1.664-1.8717 2.16-.752.496-1.568.744-2.448.744-.512 0-1.024-.112-1.536-.336-.512-.24-1.008-.56-1.488-.96l.072 1.968v3.696zm5.136-6.648c.784 0 1.44-.344 1.968-1.032s.792-1.696.792-3.024c0-1.184-.2-2.10397-.6-2.75997s-1.048-.984-1.944-.984c-.832 0-1.696.44-2.592 1.32v5.49597c.432.352.848.608 1.248.768.4.144.776.216 1.128.216z"/><path d="m107.057 18.288c-.976 0-1.672-.296-2.088-.888-.4-.592-.6-1.4-.6-2.424v-13.91997h2.76v14.06397c0 .336.064.576.192.72.128.128.264.192.408.192h.168c.064-.016.152-.032.264-.048l.36 2.064c-.16.064-.368.12-.624.168-.24.048-.52.072-.84.072z"/><path d="m113.741 18.288c-1.024 0-1.864-.32-2.52-.96-.64-.64-.96-1.472-.96-2.496 0-1.264.552-2.24 1.656-2.928 1.104-.704 2.864-1.184 5.28-1.44-.016-.62397-.184-1.15997-.504-1.60797-.304-.464-.856-.696-1.656-.696-.576 0-1.144.112-1.704.336-.544.224-1.08.496-1.608.816l-1.008-1.848c.656-.416 1.392-.776 2.208-1.08.832-.304 1.712-.456 2.64-.456 1.472 0 2.568.44 3.288 1.32.736.864 1.104 2.12 1.104 3.76797v6.984h-2.28l-.192-1.296h-.096c-.528.448-1.096.824-1.704 1.128-.592.304-1.24.456-1.944.456zm.888-2.16c.48 0 .912-.112 1.296-.336.4-.24.824-.56 1.272-.96v-2.64c-1.6.208-2.712.52-3.336.936-.624.4-.936.896-.936 1.488 0 .528.16.912.48 1.152s.728.36 1.224.36z"/><path d="m127.037 18.288c-1.36 0-2.328-.392-2.904-1.176-.56-.8-.84-1.832-.84-3.096v-5.61597h-1.68v-2.064l1.824-.12.336-3.216h2.304v3.216h3v2.184h-3v5.61597c0 1.376.552 2.064 1.656 2.064.208 0 .424-.024.648-.072.224-.064.416-.128.576-.192l.48 2.04c-.32.112-.688.208-1.104.288-.4.096-.832.144-1.296.144z"/><path d="m136.222 18.288c-1.088 0-2.072-.24-2.952-.72-.88-.496-1.576-1.2-2.088-2.112-.512-.928-.768-2.04-.768-3.336 0-1.28.256-2.38397.768-3.31197.528-.928 1.208-1.64 2.04-2.136s1.704-.744 2.616-.744c1.072 0 1.968.24 2.688.72.72.464 1.264 1.12 1.632 1.968.368.832.552 1.79997.552 2.90397 0 .576-.04 1.024-.12 1.344h-7.488c.128 1.04.504 1.848 1.128 2.424s1.408.864 2.352.864c.512 0 .984-.072 1.416-.216.448-.16.888-.376 1.32-.648l.936 1.728c-.56.368-1.184.672-1.872.912s-1.408.36-2.16.36zm-3.144-7.296h5.232c0-.912-.2-1.62397-.6-2.13597-.4-.528-1-.792-1.8-.792-.688 0-1.304.256-1.848.768-.528.496-.856 1.21597-.984 2.15997z"/><path d="m146.634 18.288c-.8 0-1.6-.152-2.4-.456-.8-.32-1.488-.712-2.064-1.176l1.296-1.776c.528.4 1.056.72 1.584.96s1.088.36 1.68.36c.64 0 1.112-.136 1.416-.408s.456-.608.456-1.008c0-.336-.128-.608-.384-.816-.24-.224-.552-.416-.936-.576-.384-.176-.784-.344-1.2-.504-.512-.192-1.024-.424-1.536-.696-.496-.288-.904-.648-1.224-1.08-.32-.448-.48-1-.48-1.65597 0-1.04.384-1.888 1.152-2.544s1.808-.984 3.12-.984c.832 0 1.576.144 2.232.432s1.224.616 1.704.984l-1.272 1.68c-.416-.304-.84-.544-1.272-.72-.416-.192-.856-.288-1.32-.288-.592 0-1.032.128-1.32.384-.288.24-.432.544-.432.912 0 .464.24.81597.72 1.05597s1.04.472 1.68.696c.544.192 1.072.432 1.584.72.512.272.936.632 1.272 1.08.352.448.528 1.04.528 1.776 0 1.008-.392 1.872-1.176 2.592-.784.704-1.92 1.056-3.408 1.056z"/><path d="m155.242 18.288c-.496 0-.92-.176-1.272-.528s-.528-.8-.528-1.344.176-.992.528-1.344.776-.528 1.272-.528c.512 0 .936.176 1.272.528s.504.8.504 1.344-.168.992-.504 1.344-.76.528-1.272.528z"/></g></svg>